D:\school\WTK\thesis\model\3dpredictsim\Results\Batchsim_tmt_linear_v2\Pog_s1_tmt_aCst_d00_k1000_ig24_pas_GRF.mot
nRows=22
nColumns=19

name D:\school\WTK\thesis\model\3dpredictsim\Results\Batchsim_tmt_linear_v2\Pog_s1_tmt_aCst_d00_k1000_ig24_pas_GRF.mot
datacolumns 19
datarows 22
range 0.5433571634 0.7715671720
endheader
time 	ground_force_vx	ground_force_vy	ground_force_vz	ground_force_px	ground_force_py	ground_force_pz	1_ground_force_vx	1_ground_force_vy	1_ground_force_vz	1_ground_force_px	1_ground_force_py	1_ground_force_pz	ground_torque_x	ground_torque_y	ground_torque_z	1_ground_torque_x	1_ground_torque_y	1_ground_torque_z
        0.5433571634	      119.7223127250	      486.4232071100	       -4.7958813869	        0.3296201819	        0.0000000000	        0.0477202887	      -60.9713900405	       42.9927376683	      -10.9883496354	        0.8406319707	        0.0000000000	       -0.0474661833	        0.0000000000	        0.0000000000	        0.0000000000	        0.0000000000	        0.0000000000	        0.0000000000	
        0.5542243067	       86.4830898467	      385.5854476381	        0.9818922433	        0.3429368143	        0.0000000000	        0.0455465839	     -114.7631112771	       99.1656057246	      -26.7057334355	        0.8510100429	        0.0000000000	       -0.0455696272	        0.0000000000	        0.0000000000	        0.0000000000	        0.0000000000	        0.0000000000	        0.0000000000	
        0.5650914499	       47.4223910821	      275.7787407153	        6.6850781416	        0.3649334968	        0.0000000000	        0.0414202154	     -120.9237221986	      217.4215141163	      -44.9119866106	        0.8579179292	        0.0000000000	       -0.0445069373	        0.0000000000	        0.0000000000	        0.0000000000	        0.0000000000	        0.0000000000	        0.0000000000	
        0.5759585932	       15.5780762900	      183.6876426202	        8.5139387140	        0.3966109038	        0.0000000000	        0.0341636222	      -70.2906539027	      405.2326092598	       -6.8657936404	        0.8630636363	        0.0000000000	       -0.0438974216	        0.0000000000	        0.0000000000	        0.0000000000	        0.0000000000	        0.0000000000	        0.0000000000	
        0.5868257365	       -0.3336284736	      142.9742491540	       11.1704174970	        0.4111721225	        0.0000000000	        0.0295327492	      -85.1164613202	      647.0183826108	        9.3976288132	        0.8724985565	        0.0000000000	       -0.0462666837	        0.0000000000	        0.0000000000	        0.0000000000	        0.0000000000	        0.0000000000	        0.0000000000	
        0.5976928797	       -1.2210144075	      110.4289920385	       11.6372182030	        0.4115561231	        0.0000000000	        0.0297079162	     -123.6137506877	      861.2299714562	       17.8640217218	        0.8807577852	        0.0000000000	       -0.0486198497	        0.0000000000	        0.0000000000	        0.0000000000	        0.0000000000	        0.0000000000	        0.0000000000	
        0.6085600230	       -4.2412032595	       72.3808678541	       11.0697632245	        0.4120166277	        0.0000000000	        0.0298308566	     -137.5388535528	      952.7422303398	       20.9924228270	        0.8862267044	        0.0000000000	       -0.0500416058	        0.0000000000	        0.0000000000	        0.0000000000	        0.0000000000	        0.0000000000	        0.0000000000	
        0.6194271663	       -8.9404246815	       30.4493685333	        6.4508683544	        0.4116757310	        0.0000000000	        0.0297760099	     -132.4398922911	      944.3462434349	       20.5271452680	        0.8902378683	        0.0000000000	       -0.0509631095	        0.0000000000	        0.0000000000	        0.0000000000	        0.0000000000	        0.0000000000	        0.0000000000	
        0.6302943095	        0.1776804074	       -0.1794402967	       -0.0159604761	        0.0000000000	        0.0000000000	        0.0000000000	     -118.8570476830	      897.0339229298	       19.7021839116	        0.8938863767	        0.0000000000	       -0.0516228912	        0.0000000000	        0.0000000000	        0.0000000000	        0.0000000000	        0.0000000000	        0.0000000000	
        0.6411614528	        0.0004153585	       -0.0003452178	        0.0000034422	        0.0000000000	        0.0000000000	        0.0000000000	     -104.1442953116	      845.0850665668	       18.5110154419	        0.8979437435	        0.0000000000	       -0.0522700277	        0.0000000000	        0.0000000000	        0.0000000000	        0.0000000000	        0.0000000000	        0.0000000000	
        0.6520285961	        0.0001861874	       -0.0001348529	        0.0000054571	        0.0000000000	        0.0000000000	        0.0000000000	      -95.1860334280	      808.6053048849	       18.7267688500	        0.9033960160	        0.0000000000	       -0.0528018659	        0.0000000000	        0.0000000000	        0.0000000000	        0.0000000000	        0.0000000000	        0.0000000000	
        0.6628957393	        0.0014506299	       -0.0009416398	        0.0000556644	        0.0000000000	        0.0000000000	        0.0000000000	      -86.7011467054	      773.7743282502	       18.0875522870	        0.9093838437	        0.0000000000	       -0.0529421497	        0.0000000000	        0.0000000000	        0.0000000000	        0.0000000000	        0.0000000000	        0.0000000000	
        0.6737628826	        0.0075653029	       -0.0044989485	        0.0003254970	        0.0000000000	        0.0000000000	        0.0000000000	      -77.6925507842	      733.9838861610	       17.6612737679	        0.9151089768	        0.0000000000	       -0.0529978674	        0.0000000000	        0.0000000000	        0.0000000000	        0.0000000000	        0.0000000000	        0.0000000000	
        0.6846300259	       -0.0603451004	        0.0334157494	       -0.0027688282	        0.0000000000	        0.0000000000	        0.0000000000	      -69.2633833803	      698.1130813938	       17.2998648200	        0.9207308481	        0.0000000000	       -0.0529248048	        0.0000000000	        0.0000000000	        0.0000000000	        0.0000000000	        0.0000000000	        0.0000000000	
        0.6954971691	       -0.0419704742	        0.0218806322	       -0.0020144501	        0.0000000000	        0.0000000000	        0.0000000000	      -61.3019945185	      669.3388881739	       17.2065717017	        0.9262155490	        0.0000000000	       -0.0528237374	        0.0000000000	        0.0000000000	        0.0000000000	        0.0000000000	        0.0000000000	        0.0000000000	
        0.7063643124	       -0.0290301358	        0.0143683720	       -0.0014367203	        0.0000000000	        0.0000000000	        0.0000000000	      -53.9086737169	      646.9509253020	       17.4816822339	        0.9314688723	        0.0000000000	       -0.0527118584	        0.0000000000	        0.0000000000	        0.0000000000	        0.0000000000	        0.0000000000	        0.0000000000	
        0.7172314557	       -0.0248844140	        0.0117669082	       -0.0012589696	        0.0000000000	        0.0000000000	        0.0000000000	      -47.4161216684	      629.8962068152	       17.8775527523	        0.9364814993	        0.0000000000	       -0.0525791040	        0.0000000000	        0.0000000000	        0.0000000000	        0.0000000000	        0.0000000000	        0.0000000000	
        0.7280985989	       -0.0274607083	        0.0124722659	       -0.0014147928	        0.0000000000	        0.0000000000	        0.0000000000	      -42.7621098960	      617.6662421092	       18.4627323392	        0.9411700898	        0.0000000000	       -0.0524174212	        0.0000000000	        0.0000000000	        0.0000000000	        0.0000000000	        0.0000000000	        0.0000000000	
        0.7389657422	       -0.0378489998	        0.0165959019	       -0.0019880958	        0.0000000000	        0.0000000000	        0.0000000000	      -38.7959951535	      609.0840932415	       19.1548585703	        0.9455153315	        0.0000000000	       -0.0522349400	        0.0000000000	        0.0000000000	        0.0000000000	        0.0000000000	        0.0000000000	        0.0000000000	
        0.7498328855	       -0.0615276024	        0.0261716548	       -0.0032998884	        0.0000000000	        0.0000000000	        0.0000000000	      -34.9615697526	      602.3623977687	       20.0949900222	        0.9495711087	        0.0000000000	       -0.0520326276	        0.0000000000	        0.0000000000	        0.0000000000	        0.0000000000	        0.0000000000	        0.0000000000	
        0.7607000287	       -0.1103988290	        0.0457495786	       -0.0060487658	        0.0000000000	        0.0000000000	        0.0000000000	      -31.1719638874	      596.6273462487	       20.7875956786	        0.9533712033	        0.0000000000	       -0.0518266619	        0.0000000000	        0.0000000000	        0.0000000000	        0.0000000000	        0.0000000000	        0.0000000000	
        0.7715671720	       -0.2047790286	        0.0829911012	       -0.0114107783	        0.0000000000	        0.0000000000	        0.0000000000	      -27.5018700478	      591.2337639529	       21.0582018125	        0.9569206022	        0.0000000000	       -0.0516302143	        0.0000000000	        0.0000000000	        0.0000000000	        0.0000000000	        0.0000000000	        0.0000000000	
